<svg xmlns="http://www.w3.org/2000/svg" width="2315" height="2315" viewBox="0 0 2315 2315">
  <defs>
    <style>
      .cls-1 {
        fill: #fafffe;
      }

      .cls-1, .cls-2 {
        fill-rule: evenodd;
      }

      .cls-2 {
        fill: #d4171d;
      }
    </style>
  </defs>
  <path id="White_Outer" data-name="White Outer" class="cls-1" d="M1086.5,12.5c173.33-8.513,346.67,15.877,525.89,92.015,234.96,103.62,398.38,255.788,528.7,460.1,24.87,46.778,47.61,85.859,74.94,146.886,111.55,276,115.5,552,23.31,833.04-45.95,123.14-80.56,177.29-132.66,259.14-91.31,135.36-207.51,245.82-348.75,334.07-67.16,37.99-113.32,65.63-223.43,105.05-185.33,67.18-370.67,72.09-560,49.05-80-13.31-160-33.67-247.415-68.56-124.863-52.82-205.131-103.86-296.538-175.84-71.669-61.66-138.8-127.86-196.916-206.62-48.612-70.19-91.554-136.27-129.463-225.33-87.2-205.33-110.6-410.67-81.322-620.859,13.825-144.984,91.7-332.4,140.588-410.207C249.257,439.591,357.96,317.626,495.32,221.616c71.842-50.786,132.4-84.351,239.18-129.783,116-46.064,232-71.506,348-77.5C1086.5,11.5,1086.5,11.5,1086.5,12.5Z"/>
  <path id="Red_Inner" data-name="Red Inner" class="cls-2" d="M1070.5,116.965c157.33-9,314.67,5.582,478.9,72.414,114.74,49.65,197.88,99.789,283.26,171.962,75.24,63.425,140.18,137.153,197.36,222.64,25.01,38.985,49.56,78.44,69.61,121.327,51.04,104.652,92.44,246.978,100.38,370.192,8.29,117.33-.34,234.67-32.55,355.97-14.98,54.26-34.27,111.85-58.62,162.37-67.28,148.72-162.87,269.13-282.02,369.98-50.74,42.6-105.87,80.79-171.37,116.65-37.67,21.6-140.64,70-228.95,91.36-165.33,43.23-330.67,47.56-500.464,9.85-67.819-15.38-145.5-40.84-210.1-71.62-186.146-87.19-329.746-216.92-440.4-383-39.407-67.54-69.738-116.47-110.768-231.56-59.741-178.67-69.353-357.33-35.207-540,14.554-65.333,31.283-130.667,62.943-203.807,39.4-92.363,79.842-155.913,133.67-228.517,76.56-100.774,169.865-184.8,280.893-254.451,59.213-33.7,105.219-59.908,195.431-93.324,88-31.323,176-52.014,264-56.613C1070.5,115.5,1070.5,115.5,1070.5,116.965Z"/>
  <path id="Hammer_and_Sickle" data-name="Hammer and Sickle" class="cls-1" d="M1169.22,336.4c116.4,96.548,221.75,202.26,308.96,331.425,22.3,29.7,39.91,64.091,58.08,98.261,30.76,64.049,59.63,155.463,61.68,233.416,7.77,78.67-6.72,157.33-34.22,238.78-192.89-152.44-385.1-305.568-583.153-460.713,42.753-57.249,92.773-107.228,129.933-167.777-46.67-2.646-93.33-9.484-144.291-12.378-45.026-.723-95.165-10.24-137.872-4.075-91.61,109.723-183.29,219.377-280.189,332.515,21.9,38.1,64.676,55.324,93.5,90.5,33.3,26.7,63.21,56.79,100.627,82.93,47.858-62.81,97.109-124.229,149.975-189.53,189.95,155.38,380.37,310.3,570.67,472.58-35.14,30.74-107.28,65.9-200.42,82.61-122.67,17.69-245.33,4.97-369.878-35.31-143.338-50.89-193.567-85.84-279.387-131.4-70.58,98.76-140.915,197.76-209.9,300.44,36.082,26.58,70.571,54.76,107.169,84.83,8.667-4.67-.667,8.67,19.614,3.61,44.466-60.86,88.306-122.36,132.386-187.61,8.667,4.67-.667-8.67,9.561-5.4,125.872,63.6,335.429,142.04,502.439,148.82,86.67,5.21,173.33,1.85,265.08-28.44,79.67-29.71,124.78-59.02,170.92-106.98,4,4.67,8-8.67,12.37-.37,76.36,60.98,151.11,123.56,231.09,183.83,36.21-41.12,68.87-85.8,105.08-126.92l1.79-8.9c-42.81-36.75-82.82-66.6-125.94-100.46-41.83-35.08-85-65.24-123.15-100.42,48.43-95.24,64.39-193.49,62.83-286.44-4.94-95.115-30.04-199.951-73.59-283.558-61.26-128.648-154.05-226.527-262.14-309.1-82.1-57.149-147.67-95.193-256.3-139.505C1178.5,335.5,1166.5,335.5,1169.22,336.4Z"/>
</svg>
